%TF.GenerationSoftware,KiCad,Pcbnew,6.0.11+dfsg-1*%
%TF.CreationDate,2025-05-12T20:35:14-06:00*%
%TF.ProjectId,voltage_mapper,766f6c74-6167-4655-9f6d-61707065722e,rev?*%
%TF.SameCoordinates,Original*%
%TF.FileFunction,Copper,L1,Top*%
%TF.FilePolarity,Positive*%
%FSLAX46Y46*%
G04 Gerber Fmt 4.6, Leading zero omitted, Abs format (unit mm)*
G04 Created by KiCad (PCBNEW 6.0.11+dfsg-1) date 2025-05-12 20:35:14*
%MOMM*%
%LPD*%
G01*
G04 APERTURE LIST*
G04 Aperture macros list*
%AMRoundRect*
0 Rectangle with rounded corners*
0 $1 Rounding radius*
0 $2 $3 $4 $5 $6 $7 $8 $9 X,Y pos of 4 corners*
0 Add a 4 corners polygon primitive as box body*
4,1,4,$2,$3,$4,$5,$6,$7,$8,$9,$2,$3,0*
0 Add four circle primitives for the rounded corners*
1,1,$1+$1,$2,$3*
1,1,$1+$1,$4,$5*
1,1,$1+$1,$6,$7*
1,1,$1+$1,$8,$9*
0 Add four rect primitives between the rounded corners*
20,1,$1+$1,$2,$3,$4,$5,0*
20,1,$1+$1,$4,$5,$6,$7,0*
20,1,$1+$1,$6,$7,$8,$9,0*
20,1,$1+$1,$8,$9,$2,$3,0*%
G04 Aperture macros list end*
%TA.AperFunction,ComponentPad*%
%ADD10C,1.700000*%
%TD*%
%TA.AperFunction,ComponentPad*%
%ADD11R,1.700000X1.700000*%
%TD*%
%TA.AperFunction,ComponentPad*%
%ADD12O,1.700000X1.700000*%
%TD*%
%TA.AperFunction,SMDPad,CuDef*%
%ADD13RoundRect,0.200000X-0.275000X0.200000X-0.275000X-0.200000X0.275000X-0.200000X0.275000X0.200000X0*%
%TD*%
%TA.AperFunction,ComponentPad*%
%ADD14RoundRect,0.200000X-0.275000X0.200000X-0.275000X-0.200000X0.275000X-0.200000X0.275000X0.200000X0*%
%TD*%
%TA.AperFunction,ComponentPad*%
%ADD15RoundRect,0.218750X0.218750X0.256250X-0.218750X0.256250X-0.218750X-0.256250X0.218750X-0.256250X0*%
%TD*%
%TA.AperFunction,SMDPad,CuDef*%
%ADD16RoundRect,0.218750X0.218750X0.256250X-0.218750X0.256250X-0.218750X-0.256250X0.218750X-0.256250X0*%
%TD*%
%TA.AperFunction,ComponentPad*%
%ADD17R,1.130000X1.130000*%
%TD*%
%TA.AperFunction,ComponentPad*%
%ADD18C,1.130000*%
%TD*%
%TA.AperFunction,ViaPad*%
%ADD19C,4.000000*%
%TD*%
%TA.AperFunction,Conductor*%
%ADD20C,0.250000*%
%TD*%
G04 APERTURE END LIST*
D10*
%TO.P,J2,1,Pin_1*%
%TO.N,/OUT1*%
X157480000Y-93980000D03*
%TD*%
D11*
%TO.P,J1,1,Pin_1*%
%TO.N,+5V*%
X127000000Y-93995000D03*
D12*
%TO.P,J1,2,Pin_2*%
%TO.N,+15V*%
X127000000Y-96535000D03*
%TO.P,J1,3,Pin_3*%
%TO.N,GND*%
X127000000Y-99075000D03*
%TD*%
D13*
%TO.P,R4,1*%
%TO.N,Net-(LM1-Pad3)*%
X138430000Y-99505000D03*
D14*
%TO.P,R4,2*%
%TO.N,GND*%
X138430000Y-101155000D03*
%TD*%
D15*
%TO.P,Z1,2,A*%
%TO.N,GND*%
X136372500Y-91440000D03*
D16*
%TO.P,Z1,1,K*%
%TO.N,/OUT1*%
X137947500Y-91440000D03*
%TD*%
D17*
%TO.P,LM358,1,OUT1*%
%TO.N,/OUT1*%
X142080000Y-93980000D03*
D18*
%TO.P,LM358,2,IN1-*%
%TO.N,Net-(LM1-Pad2)*%
X142080000Y-96520000D03*
%TO.P,LM358,3,IN1+*%
%TO.N,Net-(LM1-Pad3)*%
X142080000Y-99060000D03*
%TO.P,LM358,4,V-*%
%TO.N,GND*%
X142080000Y-101600000D03*
%TO.P,LM358,5,IN2+*%
%TO.N,unconnected-(LM1-Pad5)*%
X150020000Y-101600000D03*
%TO.P,LM358,6,IN2-*%
%TO.N,unconnected-(LM1-Pad6)*%
X150020000Y-99060000D03*
%TO.P,LM358,7,OUT2*%
%TO.N,unconnected-(LM1-Pad7)*%
X150020000Y-96520000D03*
%TO.P,LM358,8,V+*%
%TO.N,+15V*%
X150020000Y-93980000D03*
%TD*%
D14*
%TO.P,R2,2*%
%TO.N,+15V*%
X134620000Y-101155000D03*
D13*
%TO.P,R2,1*%
%TO.N,Net-(LM1-Pad3)*%
X134620000Y-99505000D03*
%TD*%
%TO.P,R3,1*%
%TO.N,/OUT1*%
X138430000Y-94425000D03*
%TO.P,R3,2*%
%TO.N,Net-(LM1-Pad2)*%
X138430000Y-96075000D03*
%TD*%
%TO.P,R1,1*%
%TO.N,+5V*%
X134620000Y-94425000D03*
%TO.P,R1,2*%
%TO.N,Net-(LM1-Pad2)*%
X134620000Y-96075000D03*
%TD*%
D19*
%TO.N,*%
X157480000Y-88900000D03*
X157480000Y-104140000D03*
X127000000Y-104140000D03*
X127000000Y-88900000D03*
%TD*%
D20*
%TO.N,+15V*%
X127000000Y-96535000D02*
X130000000Y-96535000D01*
X130000000Y-96535000D02*
X134620000Y-101155000D01*
%TO.N,+5V*%
X130795000Y-93995000D02*
X130810000Y-93980000D01*
X127000000Y-93995000D02*
X130795000Y-93995000D01*
X130810000Y-93980000D02*
X134175000Y-93980000D01*
X134175000Y-93980000D02*
X134620000Y-94425000D01*
%TO.N,/OUT1*%
X137947500Y-91440000D02*
X138430000Y-91922500D01*
X138430000Y-91922500D02*
X138430000Y-94425000D01*
%TO.N,Net-(LM1-Pad3)*%
X134620000Y-99505000D02*
X138430000Y-99505000D01*
%TO.N,Net-(LM1-Pad2)*%
X134620000Y-96075000D02*
X138430000Y-96075000D01*
X138430000Y-96075000D02*
X138875000Y-96520000D01*
X138875000Y-96520000D02*
X142080000Y-96520000D01*
%TO.N,Net-(LM1-Pad3)*%
X138430000Y-99505000D02*
X138875000Y-99060000D01*
X138875000Y-99060000D02*
X142080000Y-99060000D01*
%TO.N,/OUT1*%
X138430000Y-94425000D02*
X138875000Y-93980000D01*
X138875000Y-93980000D02*
X142080000Y-93980000D01*
%TD*%
M02*
